<?xml version="1.0" encoding="UTF-8"?>
<svg id="Layer_2" data-name="Layer 2" xmlns="http://www.w3.org/2000/svg" viewBox="0 0 135 135">
  <defs>
    <style>
      .cls-1 {
        fill: #495e57;
        stroke-width: 0px;
      }
    </style>
  </defs>
  <g id="Layer_1-2" data-name="Layer 1">
    <g>
      <path class="cls-1" d="m102.09,50.33c-.19-4.14-.88-6.4-1.46-7.89-.77-1.99-1.69-3.4-3.18-4.89s-2.9-2.41-4.89-3.18c-1.49-.58-3.74-1.27-7.89-1.46-4.48-.21-5.82-.25-17.17-.25s-12.69.04-17.17.25c-4.15.19-6.4.88-7.9,1.46-1.98.77-3.4,1.69-4.88,3.18-1.49,1.49-2.41,2.9-3.18,4.89-.58,1.49-1.28,3.75-1.47,7.89-.2,4.48-.24,5.82-.24,17.17s.04,12.69.24,17.18c.19,4.14.89,6.39,1.47,7.89.77,1.98,1.69,3.4,3.18,4.88,1.48,1.49,2.9,2.41,4.88,3.18,1.5.59,3.75,1.28,7.9,1.47,4.48.2,5.82.24,17.17.24s12.69-.04,17.17-.24c4.15-.19,6.4-.88,7.89-1.47,1.99-.77,3.4-1.69,4.89-3.18,1.49-1.48,2.41-2.9,3.18-4.88.58-1.5,1.27-3.75,1.46-7.89.21-4.49.25-5.83.25-17.18s-.04-12.69-.25-17.17Zm-34.59,39c-12.05,0-21.82-9.77-21.82-21.83s9.77-21.82,21.82-21.82,21.82,9.77,21.82,21.82-9.77,21.83-21.82,21.83Zm22.69-39.41c-2.82,0-5.1-2.29-5.1-5.1s2.28-5.1,5.1-5.1,5.1,2.28,5.1,5.1-2.29,5.1-5.1,5.1Zm-22.69,3.42c-7.82,0-14.17,6.34-14.17,14.16s6.35,14.17,14.17,14.17,14.17-6.34,14.17-14.17-6.35-14.16-14.17-14.16Z"/>
      <path class="cls-1" d="m67.5,0C30.22,0,0,30.22,0,67.5s30.22,67.5,67.5,67.5,67.5-30.22,67.5-67.5S104.78,0,67.5,0Zm42.24,85.03c-.2,4.52-.92,7.61-1.97,10.31-1.09,2.8-2.54,5.17-4.9,7.53-2.37,2.36-4.74,3.82-7.53,4.9-2.7,1.05-5.79,1.77-10.32,1.98-4.53.2-5.98.25-17.52.25s-12.99-.05-17.52-.25c-4.53-.21-7.62-.93-10.32-1.98-2.79-1.08-5.16-2.54-7.53-4.9-2.36-2.36-3.81-4.73-4.9-7.53-1.05-2.7-1.77-5.79-1.97-10.31-.21-4.54-.26-5.99-.26-17.53s.05-12.99.26-17.52c.2-4.52.92-7.61,1.97-10.32,1.09-2.79,2.54-5.16,4.9-7.52s4.74-3.82,7.53-4.91c2.7-1.05,5.79-1.77,10.32-1.97,4.53-.21,5.98-.26,17.52-.26s12.99.05,17.52.26c4.53.2,7.62.92,10.32,1.97,2.79,1.09,5.16,2.54,7.53,4.91s3.81,4.73,4.9,7.52c1.05,2.71,1.77,5.8,1.97,10.32.21,4.53.26,5.98.26,17.52s-.05,12.99-.26,17.53Z"/>
    </g>
  </g>
</svg>