<?xml version="1.0" encoding="UTF-8"?>
<svg id="Layer_2" data-name="Layer 2" xmlns="http://www.w3.org/2000/svg" viewBox="0 0 135 135.22">
  <defs>
    <style>
      .cls-1 {
        fill: #495e57;
        stroke-width: 0px;
      }
    </style>
  </defs>
  <g id="Layer_1-2" data-name="Layer 1">
    <path class="cls-1" d="m67.56,0C30.25,0,0,30.25,0,67.56c0,28.63,17.79,53.1,42.92,62.94-.61-5.34-1.11-13.57.22-19.4,1.22-5.28,7.9-33.58,7.9-33.58,0,0-2-4.06-2-10.01,0-9.4,5.45-16.4,12.23-16.4,5.78,0,8.56,4.34,8.56,9.51,0,5.78-3.67,14.46-5.62,22.52-1.61,6.73,3.39,12.23,10.01,12.23,12.01,0,21.24-12.68,21.24-30.91,0-16.18-11.62-27.47-28.25-27.47-19.24,0-30.52,14.4-30.52,29.3,0,5.78,2.22,12.01,5,15.4.56.67.61,1.28.44,1.95-.5,2.11-1.67,6.73-1.89,7.67-.28,1.22-1,1.5-2.28.89-8.45-3.95-13.73-16.24-13.73-26.19,0-21.3,15.46-40.87,44.65-40.87,23.41,0,41.65,16.68,41.65,39.03s-14.68,42.03-35.03,42.03c-6.84,0-13.29-3.56-15.46-7.78,0,0-3.39,12.9-4.23,16.07-1.5,5.89-5.62,13.23-8.4,17.74,6.34,1.95,13.01,3,20.02,3,37.31,0,67.56-30.25,67.56-67.56C135.11,30.25,104.86,0,67.56,0Z"/>
  </g>
</svg>