<?xml version="1.0" encoding="UTF-8"?>
<svg id="Layer_2" data-name="Layer 2" xmlns="http://www.w3.org/2000/svg" viewBox="0 0 135 135">
  <defs>
    <style>
      .cls-1 {
        fill: #495e57;
        stroke-width: 0px;
      }
    </style>
  </defs>
  <g id="Layer_1-2" data-name="Layer 1">
    <path class="cls-1" d="m67.5,0C30.23,0,0,30.22,0,67.5s30.23,67.5,67.5,67.5,67.5-30.22,67.5-67.5S104.78,0,67.5,0Zm37.1,59.77c-2.52.01-4.99-.33-7.44-.89-4.21-.97-8.09-2.68-11.7-5.04-.18-.13-.38-.39-.58-.3-.26.12-.12.44-.13.67,0,9.69.04,19.37-.01,29.05-.04,6.77-2.2,12.82-6.63,17.98-4.7,5.48-10.68,8.66-17.86,9.54-5.53.67-10.78-.33-15.76-2.79-.81-.4-1.58-.86-2.3-1.4-.23-.2-.45-.4-.68-.61-.54-.23-.98-.62-1.43-.98-4.45-3.53-7.58-7.97-9.31-13.39-.6-1.88-.97-3.81-1.15-5.79-.13-1.42-.15-2.85-.06-4.27.22-3.28.99-6.44,2.35-9.44,1.41-3.13,3.34-5.92,5.8-8.33,2.86-2.8,6.18-4.9,9.95-6.26,2.37-.85,4.81-1.36,7.32-1.55,1.82-.13,3.62-.09,5.43.13.25.02.39.07.39.36-.02,1.01-.02,2.01-.03,3.02.02.02.15,7.64.15,11.13,0,.12-.01.25-.01.37-.02.35-.2.47-.53.37-.95-.27-1.93-.4-2.92-.45-1.53-.08-3.04.14-4.47.67-4.79,1.77-7.71,5.2-8.31,10.26-.6,4.99,1.36,8.98,5.51,11.86.35.24.71.46,1.03.73.08.07.16.14.24.22.96.38,1.93.77,2.95.97,3.26.64,6.32.15,9.15-1.6,3.26-2.01,5.19-4.95,5.86-8.71.13-.71.15-1.44.15-2.16V24.81c0-.9-.13-.79.78-.79h13.76c.46.01.47.01.47.47-.01,1.04.42,3.48.46,3.67,1.94,9.83,13.4,15.84,16.93,16.37.97.15,1.95.27,2.94.26.41,0,.42.01.42.4,0,.92.18,10.32.17,13.75,0,.79-.1.83-.9.83Z"/>
  </g>
</svg>