<?xml version="1.0" encoding="UTF-8"?>
<svg id="Layer_2" data-name="Layer 2" xmlns="http://www.w3.org/2000/svg" viewBox="0 0 135 135">
  <defs>
    <style>
      .cls-1 {
        fill: #495e57;
        stroke-width: 0px;
      }
    </style>
  </defs>
  <g id="Layer_1-2" data-name="Layer 1">
    <g>
      <polygon class="cls-1" points="58.5 54 81.88 67.5 58.5 81 58.5 54"/>
      <path class="cls-1" d="m67.5,0C30.22,0,0,30.22,0,67.5s30.22,67.5,67.5,67.5,67.5-30.22,67.5-67.5S104.78,0,67.5,0Zm43.12,89.16c-1.04,3.88-4.09,6.93-7.96,7.96-7.02,1.88-35.16,1.88-35.16,1.88,0,0-28.14,0-35.16-1.88-3.88-1.03-6.92-4.08-7.96-7.96-1.88-7.02-1.88-21.66-1.88-21.66,0,0,0-14.64,1.88-21.66,1.04-3.87,4.08-6.92,7.96-7.96,7.02-1.88,35.16-1.88,35.16-1.88,0,0,28.14,0,35.16,1.88,3.87,1.04,6.92,4.09,7.96,7.96,1.88,7.02,1.88,21.66,1.88,21.66,0,0,0,14.64-1.88,21.66Z"/>
    </g>
  </g>
</svg>